<svg xmlns="http://www.w3.org/2000/svg" xmlns:xlink="http://www.w3.org/1999/xlink" width="450.04" height="484.8" viewBox="0 0 450.04 484.8">
  <defs>
    <radialGradient id="bb0c7d15-aa61-40e7-809f-e60a2274cde9" cx="458.9" cy="159.1" r="15.38" gradientTransform="matrix(-1.84, -0.05, 0.32, 1.03, 918.87, 33.79)" gradientUnits="userSpaceOnUse">
      <stop offset="0.1" stop-color="#f4816c"/>
      <stop offset="0.14" stop-color="#f5876f"/>
      <stop offset="0.32" stop-color="#f89e79"/>
      <stop offset="0.52" stop-color="#faaf80"/>
      <stop offset="0.73" stop-color="#fcb985"/>
      <stop offset="1" stop-color="#fcbc86"/>
    </radialGradient>
    <radialGradient id="bd6177a9-d59d-460e-8826-fea6a9321c50" cx="379.39" cy="163.87" r="15.38" gradientTransform="matrix(-1.84, 0.13, 0.42, 1, 913.38, -16.34)" xlink:href="#bb0c7d15-aa61-40e7-809f-e60a2274cde9"/>
  </defs>
  <title>Asset 1</title>
  <g id="fe9396f3-a9af-4f56-94a7-f8f140441cde" data-name="Layer 2">
    <g id="bbe649cd-d020-4b20-bad9-22b866cb8044" data-name="Layer 1">
      <g>
        <path d="M56.12,288.3c-1.78-8.65.7-11.93,6.12-19-17.49-9.09-15-34.6,3.45-42.31,21.43-8.92,52.25,32.66,68.39,43.82,11.94,8.26,23.64,15.83,33.39,26.74-17.35,23.21-21.17,54.08-55.31,38.64C92.9,327.53,60.92,311.72,56.12,288.3Z" style="fill: #863d21"/>
        <path d="M383.28,274.16c-9.19,7.71-14.71,33.64-29.81,16.75-28-31.31,24.49-60.44,57.64-50.25,37.58,11.55,45.91,58.71,33.7,89.24-11.28,28.2-30.85,47.09-57.36,59-36.87,16.48-80.32,4-115.23-13.31,1.89-7.87,4.12-15.86,6.19-23.78,46.8,12.95,117.47,28.7,142.38-28C431.71,298.86,417.91,245.07,383.28,274.16Z" style="fill: #863d21"/>
        <g>
          <path d="M135.53,479.41c37.21,11,38.25-71.34,17.74-94.07-8.5-9.42-27.12-31.23-39.69-24.52-11.28,6-11.86,29.18-11.73,42.75C102.15,433.38,111.93,472.43,135.53,479.41Z" style="fill: #863d21"/>
          <path d="M94.1,371C110,412.35,150.42,441,194.3,443.73c38.1,2.41,101.39-3,108.31-41.63,5.92-33.06,11.68-78.25-18.49-104.42-39.81-34.52-88.64-43.88-138.64-29.42C103.56,280.39,78,329.21,94.1,371Z" style="fill: #975633"/>
          <path d="M210,427.3c32.71,0,72.22-7.37,76-28.18,6.22-34.82,9-69.66-12.93-88.66-24.36-21.12-52.27-31.84-83-31.84a143.66,143.66,0,0,0-39.91,5.89c-15.83,4.58-29.43,16.3-37.31,32.16-7.71,15.53-8.8,33.12-3,48.26,13.32,34.64,47.67,59.53,85.48,61.91C200.15,427.15,205.08,427.3,210,427.3Z" style="fill: #a56538"/>
          <path d="M174.09,327.69c15,19.28,21.46,44.06,20.46,68-.5,12.19-.37,32-4.85,47.57-42.07-4.41-80.25-32.38-95.6-72.27-9-23.34-5-48.87,7.62-69,1.8-.39,3.64-.75,5.57-1C133.49,297.36,158,306.93,174.09,327.69Z" style="fill: #fcbc86"/>
          <path d="M297.52,448.62c11.19,19.53-31.26,35.67-44.38,36.16-22.1.82-64.51-18.35-66.85-46.09-1.81-21.44,10.25-44.62,37.83-57.14,15.93-7.23,63.29-3.84,64,15.19.46,12.3-18.21,14.49-7.63,27.33A141.06,141.06,0,0,1,297.52,448.62Z" style="fill: #8d4626"/>
          <path d="M279.07,285.4c-28.51,5.14-15.08,39.11-14.93,59.22.15,19.78-18.93,34.91-13.93,55.07,5.32,21.48,29,27.16,46.55,19.67,21.67-9.27,32.05-31.69,2.07-34.36,24.48.77,25.77-42.1,24.68-52.24C321.25,311.72,299.76,281.66,279.07,285.4Z" style="fill: #863d21"/>
          <path d="M133,390.43a7,7,0,1,0,7.41-6.47A7,7,0,0,0,133,390.43Z" style="fill: #ffeeb9"/>
        </g>
        <g>
          <path d="M50.25,60.11A42.84,42.84,0,0,1,70.5,70C104,20.48,166.82-8.06,233.36,2c65.32,9.89,116.23,54.27,134.48,110a43.12,43.12,0,0,1,16.49-1.31c23.33,2.67,40.11,23.4,37.49,46.33s-23.65,39.34-47,36.66a40.28,40.28,0,0,1-4.17-.68c-19.32,76.47-98.38,126.71-183.47,113.82C101.75,293.89,41,222,45.72,142.81a43.43,43.43,0,0,1-11-.61c-23.07-4.36-38.3-26.27-34-48.94S27.18,55.76,50.25,60.11Z" style="fill: #975633"/>
          <path d="M213.83,291.92c67.37,0,125.12-42.38,140.45-103.06a16.93,16.93,0,0,1,16.38-12.78,16.71,16.71,0,0,1,3.56.38c.87.19,1.73.33,2.55.43a28,28,0,0,0,3,.17,25.11,25.11,0,0,0,25.22-22,24.34,24.34,0,0,0-5.36-18.2,25.8,25.8,0,0,0-17.25-9.4,27.61,27.61,0,0,0-3-.17,26.18,26.18,0,0,0-7,1,16.87,16.87,0,0,1-20.61-11C335,66,287.51,27.32,230.83,18.74a160,160,0,0,0-24.08-1.83C156.7,16.91,111,40.29,84.5,79.43a17,17,0,0,1-11.82,7.3,17.85,17.85,0,0,1-2.18.14,17,17,0,0,1-11.12-4.16,26,26,0,0,0-12.26-6,27.69,27.69,0,0,0-4.94-.46A25.08,25.08,0,0,0,17.34,96.4a24.34,24.34,0,0,0,4,18.54,25.72,25.72,0,0,0,16.52,10.63,24.61,24.61,0,0,0,4.68.43c.68,0,1.34,0,2-.07.39,0,.78,0,1.16,0A16.9,16.9,0,0,1,62.6,143.82c-4.23,70.59,51.62,134.85,127.14,146.28A161.37,161.37,0,0,0,213.83,291.92Z" style="fill: #a56538"/>
          <path d="M50.79,190.54C56.7,172.76,68.66,158,87.28,153.76c-2.84-15.39-3.48-31.11,2.38-45.95,26.78-68,114.09-50.64,121.87,18.38,8.8-13.59,15.53-26.84,29.42-34.84,62.81-36.16,124.75,33.06,83.1,92.67,8.69,14.13,16.29,29.48,15.71,46.79a77.18,77.18,0,0,1-6.12,28.33c-35.46,36.72-89.59,56.29-146.43,47.68C119.43,296.56,67.16,249.19,50.79,190.54Z" style="fill: #fcbc86"/>
          <path d="M87.81,169.22c-.91,5.29,14.6,12.36,34.64,15.78s37,1.89,37.92-3.4-14.6-12.37-34.65-15.79S88.71,163.92,87.81,169.22Z" style="fill: url(#bb0c7d15-aa61-40e7-809f-e60a2274cde9)"/>
          <path d="M247.68,193.48c-.38,5.36,15.74,10.89,36,12.35s37-1.7,37.4-7.06-15.73-10.89-36-12.35S248.07,188.13,247.68,193.48Z" style="fill: url(#bd6177a9-d59d-460e-8826-fea6a9321c50)"/>
          <path d="M291.56,168.71l2.82-1c-4-11.28-9.57-17.69-16.63-19.06-11.49-2.24-22.26,9.77-22.71,10.28l2.23,2c.11-.11,10.1-11.26,19.91-9.33C283.13,152.74,288,158.51,291.56,168.71Z" style="fill: #603913"/>
          <path d="M129.37,138.66c-1.48,9.77,2.41,18.46,8.7,19.41s12.58-6.2,14.06-16-2.42-18.47-8.7-19.42S130.85,128.88,129.37,138.66Z" style="fill: #975633"/>
          <path d="M15,97.06c-3.18,16.32,9,32.42,27.1,36s4.55-8.86,7.74-25.18,21.92-30.39,3.78-33.93S18.19,80.73,15,97.06Z" style="fill: #fcbc86"/>
          <path d="M411.07,154.88c-1.89,16.53-18.31,28.22-36.68,26.12s-1.54-15.08.35-31.6-11.88-30.33,6.49-28.23S413,138.36,411.07,154.88Z" style="fill: #fcbc86"/>
          <path d="M190.57,170c-1.15,6.49,6.79,13.33,17.75,15.28s20.76-1.73,21.91-8.22-6.79-13.33-17.74-15.28S191.73,163.53,190.57,170Z" style="fill: #975633"/>
          <path d="M178.3,221.56s-27.41,29.32,10.28,38c0,0,24.29,3.89,14.19-32.17C202.77,227.43,178.39,222.54,178.3,221.56Z" style="fill: #e24b3e"/>
          <g>
            <path d="M234,226.44a48.45,48.45,0,0,0,17.69-8l-1.78-2.4c-23.7,17.59-70.23,6.81-95.71-4.73L153,214.07C171.1,222.28,206.85,233,234,226.44Z" style="fill: #603913"/>
            <path d="M187.89,245.47l2.87-.83c-1.57-5.37-.18-17,1.11-20.06l-2.74-1.18C187.62,226.91,186.11,239.35,187.89,245.47Z" style="fill: #603913"/>
          </g>
        </g>
      </g>
    </g>
  </g>
</svg>
